<svg xmlns="http://www.w3.org/2000/svg" viewBox="0 0 2560 1440"><defs><style>.a{fill:#2c3a38;}.b{fill:#85cba0;}.c{font-size:90.74px;fill:#010101;font-family:Bilo;}.d{fill:#f05153;}</style></defs><rect class="a" width="2560" height="1440"/><polyline class="b" points="1130.21 766.36 1140.21 776.36 1143.92 766.36 1130.21 766.36"/><polyline class="b" points="1381.59 766.36 1391.59 776.36 1391.59 766.36 1381.59 766.36"/><path class="b" d="M1163.76,766.36h-33.55l55.65-149.66c6.93-20.5,18.38-33.28,42.34-33.28,26.63,0,40,15.71,40,39.14V728.81c0,6.13,3.73,10.12,9,10.12a10.54,10.54,0,0,0,10.12-7.45L1331,616.7c6.93-20.5,18.38-33.28,42.34-33.28,26.63,0,40,15.71,40,39.14v143.8h-31.69V624.16c0-6.39-3.73-10.39-9-10.39-4.53,0-8.26,3.2-9.86,7.73L1319,736.27c-6.92,20.5-18.64,33.29-42.61,33.29-26.36,0-39.68-15.71-39.68-39.42v-106c0-6.39-4-10.39-9.32-10.39-4.79,0-8,3.2-9.85,7.73Z"/><text class="c" transform="translate(910.46 876.19)">Messmerix Studios</text><path class="d" d="M1173.76,776.36h-33.55l55.65-149.66c6.93-20.5,18.38-33.28,42.34-33.28,26.63,0,40,15.71,40,39.14V738.81c0,6.13,3.73,10.12,9,10.12a10.54,10.54,0,0,0,10.12-7.45L1341,626.7c6.93-20.5,18.38-33.28,42.34-33.28,26.63,0,40,15.71,40,39.14v143.8h-31.69V634.16c0-6.39-3.73-10.39-9-10.39-4.53,0-8.26,3.2-9.86,7.73L1329,746.27c-6.92,20.5-18.64,33.29-42.61,33.29-26.36,0-39.68-15.71-39.68-39.42v-106c0-6.39-4-10.39-9.32-10.39-4.79,0-8,3.2-9.85,7.73Z"/></svg>